G04 #@! TF.GenerationSoftware,KiCad,Pcbnew,(5.1.4)-1*
G04 #@! TF.CreationDate,2020-12-21T14:05:13-05:00*
G04 #@! TF.ProjectId,vocoder_faceplate,766f636f-6465-4725-9f66-616365706c61,rev?*
G04 #@! TF.SameCoordinates,Original*
G04 #@! TF.FileFunction,Profile,NP*
%FSLAX46Y46*%
G04 Gerber Fmt 4.6, Leading zero omitted, Abs format (unit mm)*
G04 Created by KiCad (PCBNEW (5.1.4)-1) date 2020-12-21 14:05:13*
%MOMM*%
%LPD*%
G04 APERTURE LIST*
%ADD10C,0.050000*%
G04 APERTURE END LIST*
D10*
X172500000Y-129500000D02*
G75*
G03X172500000Y-129500000I-7000000J0D01*
G01*
X145000000Y-129500000D02*
G75*
G03X145000000Y-129500000I-7000000J0D01*
G01*
X117500000Y-129500000D02*
G75*
G03X117500000Y-129500000I-7000000J0D01*
G01*
X90000000Y-129500000D02*
G75*
G03X90000000Y-129500000I-7000000J0D01*
G01*
X90000000Y-89000000D02*
G75*
G03X90000000Y-89000000I-7000000J0D01*
G01*
X172500000Y-55500000D02*
G75*
G03X172500000Y-55500000I-7000000J0D01*
G01*
X145000000Y-55500000D02*
G75*
G03X145000000Y-55500000I-7000000J0D01*
G01*
X117500000Y-55500000D02*
G75*
G03X117500000Y-55500000I-7000000J0D01*
G01*
X90000000Y-55500000D02*
G75*
G03X90000000Y-55500000I-7000000J0D01*
G01*
X171000000Y-86000000D02*
X178500000Y-86000000D01*
X171000000Y-80000000D02*
X171000000Y-86000000D01*
X166000000Y-80000000D02*
X171000000Y-80000000D01*
X166000000Y-86000000D02*
X166000000Y-80000000D01*
X158500000Y-86000000D02*
X166000000Y-86000000D01*
X158500000Y-80000000D02*
X158500000Y-86000000D01*
X153500000Y-80000000D02*
X158500000Y-80000000D01*
X153500000Y-86000000D02*
X153500000Y-80000000D01*
X141000000Y-86000000D02*
X141000000Y-98500000D01*
X153500000Y-86000000D02*
X141000000Y-86000000D01*
X178500000Y-98500000D02*
X178500000Y-86000000D01*
X141000000Y-98500000D02*
X178500000Y-98500000D01*
X99000000Y-86000000D02*
X99000000Y-98500000D01*
X124000000Y-86000000D02*
X99000000Y-86000000D01*
X124000000Y-98500000D02*
X124000000Y-86000000D01*
X99000000Y-98500000D02*
X124000000Y-98500000D01*
X187500000Y-145000000D02*
X187500000Y-45000000D01*
X187500000Y-145000000D02*
G75*
G02X184500000Y-148000000I-3000000J0D01*
G01*
X184500000Y-42000000D02*
G75*
G02X187500000Y-45000000I0J-3000000D01*
G01*
X66500000Y-42000000D02*
X184500000Y-42000000D01*
X66500000Y-148000000D02*
X184500000Y-148000000D01*
X66500000Y-42000000D02*
X66500000Y-148000000D01*
M02*
